<?xml version="1.0" encoding="UTF-8"?>
<svg version="1.1" xmlns="http://www.w3.org/2000/svg" width="369" height="365">
<path d="M0 0 C121.77 0 243.54 0 369 0 C369 120.45 369 240.9 369 365 C247.23 365 125.46 365 0 365 C0 244.55 0 124.1 0 0 Z " fill="#FDDEC2" transform="translate(0,0)"/>
<path d="M0 0 C121.77 0 243.54 0 369 0 C369 120.45 369 240.9 369 365 C247.23 365 125.46 365 0 365 C0 244.55 0 124.1 0 0 Z M176.6484375 17.4921875 C174.32554287 19.6169205 172.25292058 20.91952527 169.25 21.875 C165.54303214 23.15818118 162.34317424 24.98972529 159 27 C155.77345366 28.90690962 152.62583789 30.75510691 149.125 32.125 C146.82668286 32.79931699 146.82668286 32.79931699 146 35 C144.00319741 35.83821823 141.97355001 36.46575091 139.91015625 37.12109375 C137.64848147 37.95959902 137.64848147 37.95959902 136 41 C134.36816893 42.05589069 132.69207001 43.0436126 131 44 C129.68671457 44.85295858 128.37427149 45.70721496 127.0625 46.5625 C123.80446751 48.62182242 120.66884821 49.80549128 117 51 C116.33484375 51.71736328 116.33484375 51.71736328 115.65625 52.44921875 C113.52195039 54.44760777 111.61775309 54.92243098 108.8125 55.6875 C107.91144531 55.93886719 107.01039062 56.19023438 106.08203125 56.44921875 C105.39496094 56.63097656 104.70789063 56.81273437 104 57 C104 57.66 104 58.32 104 59 C103.113125 59.226875 102.22625 59.45375 101.3125 59.6875 C97.89948018 60.78629849 97.89948018 60.78629849 95.625 63.375 C92.39687095 66.60312905 89.13094539 68.17013256 85 70 C84.04480469 70.43505859 84.04480469 70.43505859 83.0703125 70.87890625 C80.09447942 72.20078919 77.19883139 73.36023372 74 74 C74 74.66 74 75.32 74 76 C73.34 76 72.68 76 72 76 C72 76.66 72 77.32 72 78 C71.34 78 70.68 78 70 78 C70 78.66 70 79.32 70 80 C69.175 80.04125 68.35 80.0825 67.5 80.125 C63.36845018 81.15788746 61.15656341 82.9636372 57.87890625 85.58203125 C55.70269291 87.22437105 53.54899761 88.06089562 51 89 C49.989375 89.680625 48.97875 90.36125 47.9375 91.0625 C45.36091406 92.7619503 43.91211393 93.39252677 41 94 C40.97666746 117.17377415 40.95901907 140.34754638 40.94818783 163.52132988 C40.94302563 174.28066271 40.93598437 185.03998825 40.92456055 195.79931641 C40.9146114 205.17419665 40.90814602 214.54907162 40.90591151 223.92395699 C40.90460479 228.89053317 40.90152141 233.85709426 40.89426994 238.82366562 C40.8875061 243.49389196 40.88538379 248.16409692 40.88689232 252.8343277 C40.88661616 254.55247488 40.88461318 256.27062275 40.88079453 257.98876572 C40.87585161 260.32651136 40.87700395 262.66417525 40.87974548 265.00192261 C40.87882369 266.31271223 40.8779019 267.62350185 40.87695217 268.97401237 C40.78941175 271.92090987 40.78941175 271.92090987 42 274 C43.97888961 274.72693904 45.97954558 275.39816251 48 276 C48 276.66 48 277.32 48 278 C49.58199631 278.64910154 51.16565724 279.29414694 52.75 279.9375 C53.63171875 280.29714844 54.5134375 280.65679687 55.421875 281.02734375 C57.91590143 282.03663643 57.91590143 282.03663643 60.27734375 282.51171875 C60.84582031 282.67285156 61.41429688 282.83398438 62 283 C62.268125 283.61875 62.53625 284.2375 62.8125 284.875 C64.6448868 288.15400795 67.59716557 288.61579617 71 290 C72.7074998 291.28062485 74.38263741 292.6072711 76 294 C79.02255362 296.01503575 81.56119198 296.89958143 85 298 C86.67163195 298.65411685 88.34015202 299.31653318 90 300 C90 300.66 90 301.32 90 302 C93.22791555 304.1519437 94.28400809 304.20086443 98 304 C98 304.66 98 305.32 98 306 C99.26691507 306.67408308 100.53870749 307.33900497 101.8125 308 C102.52019531 308.37125 103.22789063 308.7425 103.95703125 309.125 C106.08920729 310.19685358 106.08920729 310.19685358 109 310 C109.495 311.485 109.495 311.485 110 313 C112.24811774 314.46584612 112.24811774 314.46584612 114.9375 315.6875 C115.83339844 316.12449219 116.72929688 316.56148438 117.65234375 317.01171875 C119.88268933 318.12932948 119.88268933 318.12932948 122 318 C122 318.66 122 319.32 122 320 C122.66 320 123.32 320 124 320 C124 320.66 124 321.32 124 322 C127.82942948 324.90108294 131.27536912 325.53680089 136 326 C136 326.66 136 327.32 136 328 C136.66 328 137.32 328 138 328 C138 328.66 138 329.32 138 330 C148.01636475 336.65996984 148.01636475 336.65996984 159 340 C159 340.66 159 341.32 159 342 C159.99 342 160.98 342 162 342 C162 342.66 162 343.32 162 344 C163.32 344 164.64 344 166 344 C166.165 344.61875 166.33 345.2375 166.5 345.875 C168.90181375 349.27756949 172.00162134 349.22612026 176 350 C176 350.66 176 351.32 176 352 C180.32071344 354.16035672 184.25662618 354.640738 189 354 C191.96355946 352.79288679 191.96355946 352.79288679 194 351 C194 350.34 194 349.68 194 349 C195.98 348.34 197.96 347.68 200 347 C200 346.34 200 345.68 200 345 C200.6290625 344.91363281 201.258125 344.82726562 201.90625 344.73828125 C208.03341576 343.73246639 213.23692891 342.15105637 218 338 C218 337.34 218 336.68 218 336 C218.66 336 219.32 336 220 336 C220 335.34 220 334.68 220 334 C220.845625 333.95875 221.69125 333.9175 222.5625 333.875 C226.5841456 332.85130839 228.21763188 331.25773468 231.1875 328.5 C233.90356056 326.25222574 236.70629672 325.20993182 240 324 C240 323.34 240 322.68 240 322 C240.88751953 321.72736328 240.88751953 321.72736328 241.79296875 321.44921875 C249.23906565 319.1898514 249.23906565 319.1898514 255.328125 314.53125 C257.37597615 312.65564802 259.27249282 311.94924274 261.875 311 C265.48151921 309.61855551 268.86095703 308.30196485 272 306 C272 305.34 272 304.68 272 304 C272.61875 303.855625 273.2375 303.71125 273.875 303.5625 C276.03258322 303.06847775 276.03258322 303.06847775 278 302 C278 301.34 278 300.68 278 300 C280.30034492 299.06548488 282.60029259 298.14344338 284.9375 297.3046875 C288.87096745 295.8892352 292.62443779 294.53167165 296 292 C296 291.01 296 290.02 296 289 C297.3921875 288.938125 297.3921875 288.938125 298.8125 288.875 C304.45226069 288.12071102 309.18314238 284.84830459 314 282 C314 281.34 314 280.68 314 280 C314.88751953 279.72736328 314.88751953 279.72736328 315.79296875 279.44921875 C316.58316406 279.19785156 317.37335938 278.94648438 318.1875 278.6875 C318.96480469 278.44386719 319.74210937 278.20023437 320.54296875 277.94921875 C323.41723932 276.83880898 325.56556285 275.92445706 328 274 C328.75809686 270.73261829 328.75809686 270.73261829 328.63491821 266.87062073 C328.64661814 265.7745754 328.64661814 265.7745754 328.65855443 264.65638775 C328.67854452 262.20083655 328.66268396 259.74682323 328.64697266 257.29125977 C328.65374578 255.53377373 328.66264719 253.77629478 328.67352295 252.01882935 C328.69636104 247.23978899 328.687461 242.46128696 328.67162752 237.68223691 C328.65898982 232.68592429 328.67070288 227.6896585 328.67855835 222.69334412 C328.68766198 214.30093084 328.67564918 205.90873735 328.65185547 197.51635742 C328.62465169 187.80900685 328.63345006 178.10218144 328.6609875 168.39484364 C328.68366781 160.06693063 328.68688366 151.73917586 328.67379415 143.41124195 C328.66599257 138.43450527 328.66497727 133.45801552 328.68147659 128.48129463 C328.69590611 123.80174907 328.6859276 119.12288121 328.65700531 114.44340897 C328.65038596 112.7244994 328.65230668 111.00553293 328.66331863 109.28664589 C328.67695348 106.9424448 328.65988701 104.60042442 328.63491821 102.25636292 C328.63209052 100.28772703 328.63209052 100.28772703 328.6292057 98.27932072 C328.28982984 94.83464238 328.28982984 94.83464238 325.5804348 92.61678982 C323.49062118 91.3074022 321.47194515 90.06349512 319.25 89 C318.569375 88.67257813 317.88875 88.34515625 317.1875 88.0078125 C314.16527612 86.61543078 311.12918817 85.25766823 308.078125 83.9296875 C302.35523979 81.36944938 302.35523979 81.36944938 300.4375 79.375 C298.97021721 77.65438868 298.97021721 77.65438868 296 78 C296 77.34 296 76.68 296 76 C293.13644034 73.96779637 290.08171166 72.57496411 286.875 71.1875 C279.9607403 68.17979703 273.43590765 64.43487725 266.9375 60.625 C264.26782403 58.8386462 264.26782403 58.8386462 262 59 C261.67 58.01 261.34 57.02 261 56 C259.35965807 55.27095914 257.68698082 54.61344757 256 54 C255.13375 53.46375 254.2675 52.9275 253.375 52.375 C251.02467224 50.74948186 251.02467224 50.74948186 248 51 C248 50.34 248 49.68 248 49 C243.23359042 44.57404825 238.60501789 41.85336793 232.375 39.8125 C227.27272339 37.98673371 223.0502667 34.82771526 218.63671875 31.7421875 C216.0599595 29.87601631 216.0599595 29.87601631 213 29 C212.54238281 28.36320312 212.08476562 27.72640625 211.61328125 27.0703125 C209.66330931 24.5679272 208.14348695 23.9556834 205.1875 22.875 C204.30449219 22.54242188 203.42148438 22.20984375 202.51171875 21.8671875 C200.52827034 21.18238883 198.51760097 20.57645742 196.5 20 C193.44377319 18.77750928 193.34441462 17.86808452 192 15 C185.37054917 11.41651306 181.86300909 12.60795076 176.6484375 17.4921875 Z " fill="#E7EBEE" transform="translate(0,0)"/>
<path d="M0 0 C1.07542557 -0.00708481 2.15085114 -0.01416962 3.25886536 -0.02146912 C5.03635162 -0.01775299 5.03635162 -0.01775299 6.8497467 -0.01396179 C8.71564201 -0.02162819 8.71564201 -0.02162819 10.61923218 -0.02944946 C14.03664134 -0.04099254 17.45380848 -0.0434151 20.87122035 -0.04088616 C23.72171853 -0.03981826 26.57219421 -0.04469521 29.42268759 -0.04949158 C36.14643788 -0.06059642 42.8701323 -0.06101879 49.59388733 -0.05497742 C56.53536341 -0.04893641 63.47663686 -0.06124949 70.41807836 -0.08254749 C76.37311884 -0.10014861 82.32809473 -0.10616719 88.28316027 -0.10290974 C91.84188471 -0.10109426 95.40046463 -0.10375919 98.95916557 -0.11762428 C102.92668015 -0.13250297 106.8939356 -0.1232455 110.86146545 -0.11161804 C112.63591537 -0.12308365 112.63591537 -0.12308365 114.44621277 -0.13478088 C115.52445816 -0.12776657 116.60270355 -0.12075226 117.71362305 -0.11352539 C118.65217605 -0.11369313 119.59072905 -0.11386087 120.55772305 -0.1140337 C122.92030334 0.26069641 122.92030334 0.26069641 124.75743961 1.62392902 C125.92030334 3.26069641 125.92030334 3.26069641 125.73280334 5.82319641 C124.92030334 8.26069641 124.92030334 8.26069641 122.92030334 10.26069641 C121.01890657 10.77874164 119.09837992 11.22801853 117.17030334 11.63569641 C109.8897194 13.3774629 105.20486948 15.98686743 100.92030334 22.26069641 C99.17079092 25.95308356 98.66473049 28.87673544 98.64183044 32.9491272 C98.63066696 34.08349716 98.61950348 35.21786713 98.60800171 36.38661194 C98.60584152 37.62163452 98.60368134 38.8566571 98.60145569 40.12910461 C98.59141006 41.4368132 98.58136444 42.74452179 98.5710144 44.09185791 C98.54374987 47.66994771 98.52857558 51.24799821 98.51558638 54.82616448 C98.49994027 58.56848159 98.47315477 62.31071864 98.44755554 66.05297852 C98.40079392 73.13597531 98.36403717 80.21898722 98.33088267 87.30205935 C98.29264277 95.36736759 98.24323751 103.43259537 98.19289851 111.49783576 C98.08961759 128.08539817 98.00034473 144.67300524 97.92030334 161.26069641 C95.29816006 162.76589028 92.67286126 164.2650096 90.04530334 165.76069641 C88.92575256 166.40458313 88.92575256 166.40458313 87.78358459 167.06147766 C87.06815491 167.46753235 86.35272522 167.87358704 85.61561584 168.29194641 C84.95577698 168.66899719 84.29593811 169.04604797 83.61610413 169.43452454 C81.92030334 170.26069641 81.92030334 170.26069641 79.92030334 170.26069641 C79.92030334 117.79069641 79.92030334 65.32069641 79.92030334 11.26069641 C75.96030334 11.26069641 72.00030334 11.26069641 67.92030334 11.26069641 C67.92030334 73.63069641 67.92030334 136.00069641 67.92030334 200.26069641 C52.92030334 208.26069641 52.92030334 208.26069641 50.92030334 208.26069641 C50.92030334 142.92069641 50.92030334 77.58069641 50.92030334 10.26069641 C46.63030334 10.26069641 42.34030334 10.26069641 37.92030334 10.26069641 C37.93806824 12.14133286 37.95583313 14.0219693 37.97413635 15.95959473 C38.13613581 33.66142169 38.25663113 51.36309901 38.33480072 69.06550121 C38.37605904 78.16708323 38.43231108 87.26811205 38.52381897 96.36933899 C38.60353611 104.30165561 38.65516392 112.23357166 38.6730113 120.16627771 C38.68344511 124.3671768 38.70797597 128.5669299 38.7661438 132.76746178 C38.82045566 136.72158117 38.83719545 140.67408308 38.82516479 144.62854004 C38.82736543 146.07944342 38.843278 147.53040095 38.87394714 148.98098183 C39.09163799 159.80854341 39.09163799 159.80854341 36.39465332 163.15210915 C34.27352331 164.57749692 32.33608765 165.43185712 29.92030334 166.26069641 C29.08487251 166.57209659 28.24944168 166.88349676 27.38869476 167.20433331 C25.24610581 167.95851535 23.10434799 168.63885037 20.92030334 169.26069641 C20.91791499 168.54654823 20.91552664 167.83240005 20.91306591 167.09661102 C20.85387373 149.7023054 20.7782967 132.3081478 20.68458843 114.91399384 C20.63966456 106.50223037 20.60024207 98.09050893 20.5738678 89.67866516 C20.55086007 82.34503642 20.51743113 75.01154102 20.47160178 67.67801809 C20.44770687 63.79664744 20.42895371 59.91540854 20.42268944 56.03396606 C20.4166216 52.37641005 20.39656101 48.71919099 20.36602783 45.06175995 C20.35311874 43.08809332 20.35481289 41.11434786 20.35702515 39.14064026 C20.27791964 31.63915133 20.01923485 25.14294985 15.15858459 19.05366516 C10.6390849 15.28588753 6.58517489 12.85992456 0.92030334 11.26069641 C0.24096741 11.05702454 -0.43836853 10.85335266 -1.13829041 10.64350891 C-2.77936091 10.16142381 -4.42875928 9.70782528 -6.07969666 9.26069641 C-6.70469666 5.88569641 -6.70469666 5.88569641 -7.07969666 2.26069641 C-4.51523584 -0.30376441 -3.56203844 0.00779427 0 0 Z " fill="#284D77" transform="translate(125.07969665527344,122.73930358886719)"/>
<path d="M0 0 C0.71814851 -0.00297112 1.43629702 -0.00594224 2.1762076 -0.0090034 C4.60068337 -0.01772707 7.02510997 -0.01920172 9.44960022 -0.02069092 C11.18047187 -0.02531646 12.91134249 -0.03034075 14.64221191 -0.03573608 C19.35701226 -0.04888649 24.07179835 -0.05531002 28.78661418 -0.05974674 C31.72861026 -0.06267286 34.6706024 -0.06677675 37.61259651 -0.07125092 C46.80697453 -0.08493202 56.0013436 -0.094596 65.1957311 -0.09845281 C75.8289424 -0.102937 86.46202536 -0.12049908 97.09519762 -0.1494534 C105.30155324 -0.1710281 113.50787265 -0.18115481 121.71425635 -0.18249393 C126.62161626 -0.18354487 131.52885564 -0.18951392 136.43618584 -0.20731354 C141.04985071 -0.2237219 145.66330353 -0.22598521 150.27698708 -0.21717453 C151.97417644 -0.21640028 153.67137686 -0.22079745 155.3685379 -0.23063278 C157.67799652 -0.24323588 159.98669072 -0.23754007 162.29614258 -0.22705078 C164.23825575 -0.22925062 164.23825575 -0.22925062 166.21960354 -0.2314949 C167.2069502 -0.10875576 168.19429686 0.01398338 169.21156311 0.14044189 C171.37578661 3.38677714 171.58726167 4.38345633 171.21156311 8.14044189 C170.55156311 9.13044189 169.89156311 10.12044189 169.21156311 11.14044189 C166.43545341 11.50958538 166.43545341 11.50958538 162.82090759 11.50120544 C161.82604109 11.50505036 161.82604109 11.50505036 160.81107628 11.50897294 C158.57828002 11.51393277 156.34615302 11.49738268 154.11341858 11.48101807 C152.51708492 11.48017226 150.92075009 11.48064602 149.32441711 11.48234558 C144.98159733 11.4832088 140.63902449 11.46553047 136.29626226 11.44462371 C131.76121607 11.42591109 127.22616466 11.42411075 122.69108582 11.42054749 C114.09918396 11.41121106 105.50739618 11.38657573 96.91554463 11.35649902 C87.13577295 11.32300464 77.35599591 11.3064815 67.57618117 11.29141271 C47.45457807 11.26002751 27.33307777 11.20723605 7.21156311 11.14044189 C7.57250061 11.68313721 7.93343811 12.22583252 8.30531311 12.78497314 C8.76937561 13.50040283 9.23343811 14.21583252 9.71156311 14.95294189 C10.17562561 15.66063721 10.63968811 16.36833252 11.11781311 17.09747314 C12.21156311 19.14044189 12.21156311 19.14044189 12.21156311 22.14044189 C12.9579325 22.1395201 13.70430189 22.13859831 14.47328854 22.13764858 C32.60775908 22.11559446 50.74222695 22.09903088 68.87670803 22.08862972 C77.64629026 22.08346652 86.41586356 22.07642335 95.18544006 22.06500244 C102.82619214 22.05505635 110.46693775 22.04858865 118.10769612 22.0463534 C122.15594696 22.04504616 126.20417931 22.04195951 130.25242424 22.03471184 C134.0583718 22.0279528 137.86429313 22.02582469 141.67024612 22.02733421 C143.07113983 22.02705783 144.47203436 22.02505202 145.8729229 22.02123642 C147.77745819 22.01630107 149.68200737 22.0180439 151.58654785 22.02018738 C152.65490592 22.01926558 153.72326399 22.01834379 154.82399654 22.01739407 C157.21156311 22.14044189 157.21156311 22.14044189 158.21156311 23.14044189 C158.7206982 31.79573837 155.73825492 39.45023602 150.21156311 46.14044189 C148.89156311 46.14044189 147.57156311 46.14044189 146.21156311 46.14044189 C145.88156311 45.81044189 145.55156311 45.48044189 145.21156311 45.14044189 C143.86409227 44.90969107 142.50778746 44.72891127 141.14906311 44.57794189 C139.84968811 44.43356689 138.55031311 44.28919189 137.21156311 44.14044189 C137.92829026 39.6608972 139.71533786 37.50883609 142.21156311 33.14044189 C96.67156311 33.14044189 51.13156311 33.14044189 4.21156311 33.14044189 C-1.78843689 22.14044189 -1.78843689 22.14044189 -1.78843689 19.14044189 C-2.44843689 19.14044189 -3.10843689 19.14044189 -3.78843689 19.14044189 C-3.78843689 18.48044189 -3.78843689 17.82044189 -3.78843689 17.14044189 C-4.44843689 17.14044189 -5.10843689 17.14044189 -5.78843689 17.14044189 C-9.8915608 10.76534028 -9.8915608 10.76534028 -9.64390564 6.86309814 C-7.88727982 -0.12549234 -6.89479028 0.01584536 0 0 Z " fill="#A7CEEF" transform="translate(102.78843688964844,78.85955810546875)"/>
<path d="M0 0 C0.33 0 0.66 0 1 0 C1 43.56 1 87.12 1 132 C0.01 132.33 -0.98 132.66 -2 133 C-2.04670817 116.2495809 -2.08198303 99.49918292 -2.10362434 82.74871445 C-2.11393959 74.9712888 -2.12800466 67.1939036 -2.15087891 59.41650391 C-2.17080519 52.63820406 -2.18371463 45.85993351 -2.18817699 39.0816052 C-2.19078566 35.49209801 -2.19692232 31.90267462 -2.21146011 28.31319427 C-2.22755266 24.30739108 -2.22798018 20.30173385 -2.22705078 16.29589844 C-2.23424133 15.10403427 -2.24143188 13.9121701 -2.24884033 12.68418884 C-2.246091 11.59326431 -2.24334167 10.50233978 -2.24050903 9.37835693 C-2.24235262 8.43075375 -2.24419621 7.48315056 -2.24609566 6.50683212 C-1.98885318 3.88645392 -1.33168741 2.24954645 0 0 Z " fill="#3F597D" transform="translate(222,152)"/>
<path d="M0 0 C18.49722732 -0.02332798 36.99445167 -0.04097868 55.49169064 -0.05181217 C64.07967049 -0.05697534 72.66764123 -0.06401844 81.25561523 -0.07543945 C88.73815417 -0.08538565 96.22068651 -0.09185327 103.70323187 -0.09408849 C107.66764586 -0.09539571 111.63204095 -0.09848226 115.5964489 -0.10573006 C119.32360213 -0.11248926 123.05072857 -0.11461717 126.77788734 -0.11310768 C128.14975505 -0.11338406 129.5216236 -0.11538978 130.89348602 -0.11920547 C132.75860963 -0.12414108 134.62374744 -0.12239794 136.48887634 -0.12025452 C137.53511138 -0.12117631 138.58134642 -0.1220981 139.65928555 -0.12304783 C142 0 142 0 143 1 C143.04063832 2.66617115 143.042721 4.33388095 143 6 C142.45875866 5.350704 141.91751732 4.701408 141.35987473 4.03243637 C138.42775835 1.50715827 137.06632134 1.49482426 133.24200439 1.48101807 C132.06693832 1.46710526 130.89187225 1.45319244 129.68119812 1.43885803 C128.39582657 1.4438884 127.11045502 1.44891876 125.78613281 1.45410156 C124.41609015 1.44536558 123.04605769 1.4348797 121.67604065 1.42277527 C117.95937282 1.39489712 114.24303761 1.39151096 110.5262804 1.39249516 C106.64112192 1.38936758 102.75611359 1.36375266 98.87103271 1.34051514 C91.51527152 1.29993958 84.15959901 1.27961082 76.80374312 1.26654124 C68.42888127 1.25067643 60.05417045 1.21226304 51.67939615 1.17194796 C34.45297582 1.08952776 17.2265797 1.03544896 0 1 C0 0.67 0 0.34 0 0 Z " fill="#9ACEF5" transform="translate(117,102)"/>
<path d="M0 0 C0.99 0.495 0.99 0.495 2 1 C3.82422981 1.10534208 5.65229075 1.14661165 7.47952271 1.15821838 C8.64342529 1.1680072 9.80732788 1.17779602 11.00650024 1.18788147 C12.28971161 1.19363693 13.57292297 1.1993924 14.89501953 1.20532227 C16.2549062 1.21489864 17.61478988 1.22490858 18.97467041 1.23532104 C22.67276204 1.26240227 26.37086647 1.28339437 30.06900263 1.30332303 C33.9314321 1.32516277 37.79382195 1.35256129 41.65621948 1.37937927 C48.97307007 1.42933342 56.28994261 1.47426213 63.6068362 1.51740164 C71.93564986 1.56675078 80.26442378 1.62167751 88.59319901 1.67708123 C105.72876263 1.79094305 122.86436311 1.89777292 140 2 C140 3.98 140 5.96 140 8 C139.01 8.33 138.02 8.66 137 9 C137.66 7.02 138.32 5.04 139 3 C93.46 3 47.92 3 1 3 C0.67 2.01 0.34 1.02 0 0 Z " fill="#B8D2E7" transform="translate(106,109)"/>
<path d="M0 0 C0.66 0.33 1.32 0.66 2 1 C1.54625 1.639375 1.0925 2.27875 0.625 2.9375 C-1.44541527 6.83943648 -2.20081414 10.68439633 -3 15 C-3.66 14.67 -4.32 14.34 -5 14 C-5 13.34 -5 12.68 -5 12 C-5.99 12 -6.98 12 -8 12 C-6.64994369 6.32976351 -4.1842771 3.82042691 0 0 Z " fill="#EAD2BD" transform="translate(232,137)"/>
<path d="M0 0 C-1.99284105 1.34516771 -3.99235911 2.67716882 -6 4 C-6.6496875 4.43183594 -7.299375 4.86367188 -7.96875 5.30859375 C-11.91971102 7.86912041 -15.50276844 9.53578507 -20 11 C-20.515625 11.515625 -21.03125 12.03125 -21.5625 12.5625 C-23.51990658 14.51990658 -25.31396579 14.6370224 -28 15 C-28 14.34 -28 13.68 -28 13 C-27.113125 12.566875 -26.22625 12.13375 -25.3125 11.6875 C-22.0832945 10.09550421 -22.0832945 10.09550421 -19.4375 8.4375 C-17.00485889 7.0028655 -14.64083622 5.99031358 -12 5 C-11.071875 4.62875 -10.14375 4.2575 -9.1875 3.875 C-8.465625 3.58625 -7.74375 3.2975 -7 3 C-7 2.01 -7 1.02 -7 0 C-3.98968256 -0.93423645 -3.13349732 -1.04449911 0 0 Z " fill="#F2E4D9" transform="translate(137,41)"/>
<path d="M0 0 C0.66 0.33 1.32 0.66 2 1 C-3.13175381 5.3520996 -7.31636048 8.72015413 -14 10 C-13.67 9.01 -13.34 8.02 -13 7 C-12.01 6.67 -11.02 6.34 -10 6 C-9.67 5.01 -9.34 4.02 -9 3 C-7.1875 2.3046875 -7.1875 2.3046875 -5 1.875 C-2.22654918 1.46392855 -2.22654918 1.46392855 0 0 Z " fill="#F2E5D8" transform="translate(179,14)"/>
<path d="M0 0 C0.33 0.66 0.66 1.32 1 2 C2.32 1.67 3.64 1.34 5 1 C5.66 2.98 6.32 4.96 7 7 C9.97 7.495 9.97 7.495 13 8 C13 8.33 13 8.66 13 9 C8.45194365 9.17835515 5.1205746 8.99785435 1 7 C0.67 4.69 0.34 2.38 0 0 Z " fill="#E1CDB9" transform="translate(113,125)"/>
<path d="M0 0 C-1.21705006 1.01471171 -2.44926884 2.0112461 -3.6875 3 C-4.71423828 3.8353125 -4.71423828 3.8353125 -5.76171875 4.6875 C-8.38783056 6.22741897 -10.00603356 6.25168194 -13 6 C-12.34 5.67 -11.68 5.34 -11 5 C-11 4.34 -11 3.68 -11 3 C-10.34 3 -9.68 3 -9 3 C-9 2.34 -9 1.68 -9 1 C-5.47051709 -0.66670026 -3.71727674 -1.13583456 0 0 Z " fill="#F4E3D3" transform="translate(83,73)"/>
<path d="M0 0 C0.66 0.99 1.32 1.98 2 3 C0.6875 5.9375 0.6875 5.9375 -1 9 C-4.47823115 10.15941038 -6.45895578 9.70820884 -10 9 C-10 8.67 -10 8.34 -10 8 C-8.906875 7.79375 -7.81375 7.5875 -6.6875 7.375 C-2.7714341 6.34336062 -2.7714341 6.34336062 -1.0625 2.875 C-0.711875 1.92625 -0.36125 0.9775 0 0 Z " fill="#D5CBBF" transform="translate(252,125)"/>
<path d="M0 0 C0.66 0.33 1.32 0.66 2 1 C1.4375 2.9375 1.4375 2.9375 0 5 C-3.625 5.75 -3.625 5.75 -7 6 C-7 5.34 -7 4.68 -7 4 C-1.7265625 0.77734375 -1.7265625 0.77734375 0 0 Z " fill="#E7D1BC" transform="translate(212,289)"/>
<path d="M0 0 C0 0.66 0 1.32 0 2 C-1.78614318 3.03046722 -3.57910018 4.04913236 -5.375 5.0625 C-6.87160156 5.91521484 -6.87160156 5.91521484 -8.3984375 6.78515625 C-9.25695312 7.18605469 -10.11546875 7.58695312 -11 8 C-11.66 7.67 -12.32 7.34 -13 7 C-11.35 6.34 -9.7 5.68 -8 5 C-8 4.34 -8 3.68 -8 3 C-2.25 0 -2.25 0 0 0 Z " fill="#F2E4D8" transform="translate(218,336)"/>
<path d="M0 0 C0 0.66 0 1.32 0 2 C-3.96 3.98 -7.92 5.96 -12 8 C-12.33 7.34 -12.66 6.68 -13 6 C-8.25 3 -8.25 3 -6 3 C-6 2.34 -6 1.68 -6 1 C-3.92446352 0.4465236 -2.15634036 0 0 0 Z " fill="#F3E4D6" transform="translate(328,272)"/>
<path d="M0 0 C3 0 3 0 4.625 1.125 C6.47534669 3.64820003 6.60827834 5.93151367 7 9 C7.33 9.66 7.66 10.32 8 11 C7.01 11 6.02 11 5 11 C4.80664062 10.45730469 4.61328125 9.91460937 4.4140625 9.35546875 C4.15367187 8.64003906 3.89328125 7.92460937 3.625 7.1875 C3.36976563 6.47980469 3.11453125 5.77210938 2.8515625 5.04296875 C1.9734231 2.75226641 1.9734231 2.75226641 0 0 Z " fill="#355376" transform="translate(140,141)"/>
<path d="M0 0 C1.65 0.33 3.3 0.66 5 1 C0.375 5 0.375 5 -3 5 C-2.67 4.01 -2.34 3.02 -2 2 C-1.34 2 -0.68 2 0 2 C0 1.34 0 0.68 0 0 Z " fill="#34537A" transform="translate(155,284)"/>
<path d="M0 0 C2.84326464 -0.23053497 4.46145349 -0.35903101 6.875 1.25 C8 3 8 3 7.6875 5.1875 C7.460625 5.785625 7.23375 6.38375 7 7 C6.01 6.67 5.02 6.34 4 6 C4 4.35 4 2.7 4 1 C2.68 0.67 1.36 0.34 0 0 Z " fill="#365D86" transform="translate(243,123)"/>
<path d="M0 0 C-0.99 0 -1.98 0 -3 0 C-3.4021875 1.2065625 -3.4021875 1.2065625 -3.8125 2.4375 C-4.4003125 3.7059375 -4.4003125 3.7059375 -5 5 C-5.99 5.33 -6.98 5.66 -8 6 C-8 5.34 -8 4.68 -8 4 C-7.34 4 -6.68 4 -6 4 C-6 3.34 -6 2.68 -6 2 C-6.66 1.67 -7.32 1.34 -8 1 C-4.93251126 -0.86240388 -3.40254489 -1.2151946 0 0 Z " fill="#D8C5B4" transform="translate(156,290)"/>
<path d="M0 0 C3.99455527 0.61454696 6.74466336 2.70646737 10 5 C9.01 5.33 8.02 5.66 7 6 C5.17578125 5.0390625 5.17578125 5.0390625 3.3125 3.625 C2.68988281 3.16351563 2.06726563 2.70203125 1.42578125 2.2265625 C0.95527344 1.82179688 0.48476562 1.41703125 0 1 C0 0.67 0 0.34 0 0 Z " fill="#F3E4D5" transform="translate(72,290)"/>
<path d="M0 0 C0 0.66 0 1.32 0 2 C-5.17578125 5.22265625 -5.17578125 5.22265625 -7 6 C-7.99 5.67 -8.98 5.34 -10 5 C-8.35 4.34 -6.7 3.68 -5 3 C-5 2.34 -5 1.68 -5 1 C-2 0 -2 0 0 0 Z " fill="#F3E4D5" transform="translate(314,280)"/>
<path d="M0 0 C2.9375 0.8125 2.9375 0.8125 6 2 C6.33 2.99 6.66 3.98 7 5 C4.625 4.75 4.625 4.75 2 4 C0.6875 1.9375 0.6875 1.9375 0 0 Z " fill="#F4E3D4" transform="translate(166,344)"/>
<path d="M0 0 C-2.33214148 1.20628008 -4.49642139 2.1654738 -7 3 C-7.66 2.34 -8.32 1.68 -9 1 C-5.64919071 -1.10976881 -3.77897651 -1.0497157 0 0 Z " fill="#E4CEB7" transform="translate(243,135)"/>
<path d="M0 0 C0.33 0.99 0.66 1.98 1 3 C1.66 3 2.32 3 3 3 C2.67 4.32 2.34 5.64 2 7 C0.68 7.33 -0.64 7.66 -2 8 C-1.34 5.36 -0.68 2.72 0 0 Z " fill="#F0DAC7" transform="translate(260,109)"/>
</svg>
