<?xml version="1.0" encoding="UTF-8"?>
<svg version="1.1" xmlns="http://www.w3.org/2000/svg" width="369" height="365">
<path d="M0 0 C2.62565468 1.23830002 4.83985724 2.44232732 7.25 4 C8.72951009 4.91171378 10.21006362 5.82173549 11.69140625 6.73046875 C12.51914551 7.24399902 13.34688477 7.7575293 14.19970703 8.28662109 C19.18776422 11.33859889 24.24942993 14.26617227 29.3008728 17.21154785 C32.45857816 19.05424497 35.61211866 20.90403515 38.765625 22.75390625 C39.38426926 23.11672699 40.00291351 23.47954773 40.64030457 23.85336304 C46.24554248 27.14180023 51.84334487 30.44274444 57.4375 33.75 C58.76080322 34.53189697 58.76080322 34.53189697 60.11083984 35.32958984 C64.53438436 37.94487488 68.95357875 40.5671989 73.3671875 43.19921875 C84.10699582 49.59251349 94.93290966 55.80199399 105.84985352 61.88793945 C112.50370355 65.59842954 119.14427682 69.32938191 125.75 73.125 C126.51787842 73.56215332 127.28575684 73.99930664 128.0769043 74.44970703 C128.78886963 74.86075684 129.50083496 75.27180664 130.234375 75.6953125 C130.84506836 76.04609863 131.45576172 76.39688477 132.08496094 76.75830078 C132.71692383 77.16806152 133.34888672 77.57782227 134 78 C134.85098613 78.53857415 135.70197226 79.0771483 136.57874584 79.63204288 C139 82 139 82 139.63758564 85.22688198 C139.64336722 86.51458524 139.64914881 87.80228849 139.65510559 89.12901306 C139.66998057 90.20690569 139.66998057 90.20690569 139.68515605 91.30657393 C139.712131 93.71517131 139.70334868 96.12229286 139.69458008 98.53100586 C139.70626626 100.25746632 139.72003518 101.98391376 139.73573303 103.71034241 C139.77137687 108.40050085 139.77484595 113.09016543 139.77042222 117.78043818 C139.76923377 121.69460269 139.78267289 125.60866402 139.79580516 129.52280241 C139.82614786 138.75607884 139.8294499 147.98910284 139.81665039 157.22241211 C139.80396582 166.75105443 139.83915473 176.27868432 139.89753419 185.80713362 C139.94581746 193.98563059 139.96321246 202.16380284 139.95605963 210.34243876 C139.95217548 215.22830033 139.96034167 220.11339949 139.99866676 224.99912834 C140.03345888 229.59362169 140.02974263 234.1864931 139.99632835 238.78098106 C139.9905422 240.46724177 139.99841898 242.15361282 140.02093506 243.83973312 C140.17943701 256.60424502 140.17943701 256.60424502 137.24426365 260.07775211 C135.18173979 261.39133277 133.30986237 262.22395496 131 263 C130.1438208 263.51828369 129.2876416 264.03656738 128.40551758 264.57055664 C125.87549617 266.06955539 123.34513498 267.56791927 120.8125 269.0625 C119.37390625 269.91231445 119.37390625 269.91231445 117.90625 270.77929688 C110.60516022 275.08052866 103.25762461 279.2952864 95.89111328 283.4831543 C88.69846765 287.58051072 81.56795863 291.77740872 74.44799805 295.99951172 C67.58496106 300.06806579 60.70482437 304.10626075 53.8125 308.125 C52.80501709 308.71249023 51.79753418 309.29998047 50.75952148 309.90527344 C46.16636239 312.58110294 41.5700177 315.25114672 36.96484375 317.90625 C35.39320485 318.81245783 33.82158964 319.71870675 32.25 320.625 C31.49734863 321.05893066 30.74469727 321.49286133 29.96923828 321.93994141 C23.15163385 325.88436035 16.40129604 329.93852872 9.67089844 334.02978516 C7.45661156 335.36972426 5.23020224 336.68679532 3 338 C1.96488281 338.6290625 0.92976562 339.258125 -0.13671875 339.90625 C-3.90104071 341.34419018 -6.11666124 340.9849362 -10 340 C-12.90234375 338.64453125 -12.90234375 338.64453125 -15.9375 336.8125 C-17.16138455 336.08581322 -18.38534939 335.35926166 -19.609375 334.6328125 C-20.29451172 334.22063477 -20.97964844 333.80845703 -21.68554688 333.38378906 C-25.30162996 331.22176808 -28.9465395 329.10964332 -32.58813477 326.9909668 C-35.72095659 325.16803219 -38.85093898 323.34029825 -41.98046875 321.51171875 C-47.14657639 318.4955073 -52.32061421 315.49333932 -57.5 312.5 C-65.5498419 307.84728401 -73.58016103 303.16159053 -81.60766602 298.47045898 C-87.9512337 294.76724398 -94.31032755 291.0923103 -100.67993164 287.43408203 C-114.55660962 279.46146617 -128.3462634 271.34992291 -142 263 C-142.65523557 262.77698495 -143.31047113 262.5539699 -143.98556232 262.32419682 C-146.65603972 261.20279929 -148.11662024 260.22535373 -150 258 C-151.27651294 252.48988485 -151.10460753 247.00272295 -151.05102539 241.37133789 C-151.06350572 239.64634034 -151.07937344 237.92136445 -151.09837341 236.19642639 C-151.13912062 231.51421689 -151.12909035 226.83338792 -151.1075356 222.15109944 C-151.09434761 218.24190613 -151.10645444 214.33296282 -151.11874098 210.42377943 C-151.1475623 201.20130763 -151.13596218 191.97950177 -151.09790039 182.75708008 C-151.05921448 173.24360645 -151.08208929 163.73172791 -151.13642889 154.21836668 C-151.18128187 146.04910841 -151.19111153 137.88033929 -151.17215914 129.7109794 C-151.16099562 124.83235041 -151.16237188 119.95458036 -151.19609261 115.07603645 C-151.22601454 110.48785153 -151.2120214 105.90184733 -151.16431618 101.31383324 C-151.15402325 99.63124968 -151.15902312 97.94849188 -151.18051529 96.2660141 C-151.3292764 83.54460964 -151.3292764 83.54460964 -148.0198431 79.69907188 C-145.72507925 78.14243592 -143.56353318 77.03846929 -141 76 C-140.06148193 75.42443359 -139.12296387 74.84886719 -138.15600586 74.25585938 C-137.35042236 73.78986328 -136.54483887 73.32386719 -135.71484375 72.84375 C-134.31915161 72.03321167 -134.31915161 72.03321167 -132.89526367 71.20629883 C-131.43117065 70.36168091 -131.43117065 70.36168091 -129.9375 69.5 C-127.80723963 68.26441263 -125.67703284 67.02873288 -123.546875 65.79296875 C-122.46341797 65.16567871 -121.37996094 64.53838867 -120.26367188 63.89208984 C-115.06442767 60.87786613 -109.87667187 57.84401814 -104.6875 54.8125 C-96.86975317 50.24999932 -89.04281957 45.70381578 -81.20605469 41.17407227 C-73.92949701 36.96554704 -66.67222018 32.72421469 -59.41430664 28.48364258 C-54.02424752 25.3375486 -48.62715308 22.2043113 -43.21875 19.08984375 C-42.0946875 18.44241211 -40.970625 17.79498047 -39.8125 17.12792969 C-37.58238753 15.84574408 -35.3506427 14.56639302 -33.1171875 13.29003906 C-28.46347019 10.62207765 -23.8420058 7.94359691 -19.34375 5.01953125 C-18.66900635 4.58680908 -17.9942627 4.15408691 -17.29907227 3.70825195 C-15.60171012 2.60658044 -13.92280327 1.47660637 -12.24609375 0.34375 C-7.83084864 -1.48398083 -4.57231067 -1.21030275 0 0 Z " fill="#FCDEC3" transform="translate(190,14)"/>
<path d="M0 0 C1.07542557 -0.00708481 2.15085114 -0.01416962 3.25886536 -0.02146912 C5.03635162 -0.01775299 5.03635162 -0.01775299 6.8497467 -0.01396179 C8.71564201 -0.02162819 8.71564201 -0.02162819 10.61923218 -0.02944946 C14.03664134 -0.04099254 17.45380848 -0.0434151 20.87122035 -0.04088616 C23.72171853 -0.03981826 26.57219421 -0.04469521 29.42268759 -0.04949158 C36.14643788 -0.06059642 42.8701323 -0.06101879 49.59388733 -0.05497742 C56.53536341 -0.04893641 63.47663686 -0.06124949 70.41807836 -0.08254749 C76.37311884 -0.10014861 82.32809473 -0.10616719 88.28316027 -0.10290974 C91.84188471 -0.10109426 95.40046463 -0.10375919 98.95916557 -0.11762428 C102.92668015 -0.13250297 106.8939356 -0.1232455 110.86146545 -0.11161804 C112.63591537 -0.12308365 112.63591537 -0.12308365 114.44621277 -0.13478088 C115.52445816 -0.12776657 116.60270355 -0.12075226 117.71362305 -0.11352539 C118.65217605 -0.11369313 119.59072905 -0.11386087 120.55772305 -0.1140337 C122.92030334 0.26069641 122.92030334 0.26069641 124.75743961 1.62392902 C125.92030334 3.26069641 125.92030334 3.26069641 125.73280334 5.82319641 C124.92030334 8.26069641 124.92030334 8.26069641 122.92030334 10.26069641 C121.01890657 10.77874164 119.09837992 11.22801853 117.17030334 11.63569641 C109.8897194 13.3774629 105.20486948 15.98686743 100.92030334 22.26069641 C99.16315273 25.96538604 98.66463931 28.90050221 98.64183044 32.98709106 C98.63066696 34.12987518 98.61950348 35.2726593 98.60800171 36.45007324 C98.60584152 37.69444656 98.60368134 38.93881989 98.60145569 40.22090149 C98.59141006 41.53836365 98.58136444 42.85582581 98.5710144 44.21321106 C98.54374861 47.8181596 98.5285752 51.42306913 98.51558638 55.02809358 C98.49994083 58.79843757 98.47315515 62.56870208 98.44755554 66.33898926 C98.40079294 73.47511023 98.36403666 80.61124619 98.33088267 87.74744195 C98.29264347 95.87320817 98.24323802 103.99889452 98.19289851 112.12459338 C98.08961612 128.83657034 98.00034374 145.54859163 97.92030334 162.26069641 C96.26768494 162.9602948 96.26768494 162.9602948 94.5816803 163.67402649 C90.81744159 165.3052719 87.37394189 167.20943399 83.83827209 169.27241516 C81.92030334 170.26069641 81.92030334 170.26069641 79.92030334 170.26069641 C79.92030334 117.79069641 79.92030334 65.32069641 79.92030334 11.26069641 C75.96030334 11.26069641 72.00030334 11.26069641 67.92030334 11.26069641 C67.92030334 73.63069641 67.92030334 136.00069641 67.92030334 200.26069641 C52.92030334 208.26069641 52.92030334 208.26069641 50.92030334 208.26069641 C50.92030334 142.92069641 50.92030334 77.58069641 50.92030334 10.26069641 C46.63030334 10.26069641 42.34030334 10.26069641 37.92030334 10.26069641 C37.92030334 60.09069641 37.92030334 109.92069641 37.92030334 161.26069641 C23.92030334 169.26069641 23.92030334 169.26069641 20.92030334 169.26069641 C20.91883678 168.54839182 20.91737022 167.83608723 20.91585922 167.10219765 C20.87874768 149.74054704 20.81967553 132.3791088 20.7364006 115.01761818 C20.69665396 106.62159037 20.66423932 98.2256557 20.64930725 89.82954407 C20.63626797 82.50832076 20.60924553 75.18730275 20.56569028 67.86619508 C20.54312635 63.99254505 20.5273896 60.11914775 20.52841949 56.24542618 C20.52916913 52.59270855 20.51109806 48.94054853 20.47913551 45.28797531 C20.46667298 43.32184975 20.47367683 41.3556303 20.48144531 39.38948059 C20.39656443 32.11884757 19.79881534 25.58199614 15.92030334 19.26069641 C10.52815463 14.10850616 4.64884749 12.3553273 -2.57579041 10.99897766 C-5.07969666 10.26069641 -5.07969666 10.26069641 -7.07969666 7.26069641 C-7.32969666 4.69819641 -7.32969666 4.69819641 -7.07969666 2.26069641 C-4.51523584 -0.30376441 -3.56203844 0.00779427 0 0 Z " fill="#294B74" transform="translate(125.07969665527344,122.73930358886719)"/>
<path d="M0 0 C0.71985736 -0.00467997 1.43971472 -0.00935994 2.18138593 -0.01418173 C4.59982391 -0.02617292 7.01769953 -0.01665878 9.43614197 -0.00723267 C11.16731091 -0.01129651 12.89847726 -0.01663734 14.62963867 -0.02316284 C19.33612122 -0.03686351 24.04240694 -0.03152674 28.74889302 -0.02202559 C33.66738886 -0.01444443 38.58586754 -0.02147018 43.50436401 -0.02618408 C51.76388077 -0.03164563 60.0233171 -0.02443901 68.28282166 -0.01016235 C77.84240854 0.00617032 87.40180354 0.00087278 96.96138579 -0.01564157 C105.15930327 -0.02923864 113.35716287 -0.03118499 121.55508798 -0.02332556 C126.45569311 -0.01863993 131.35620794 -0.01804866 136.25680733 -0.02793503 C140.86231826 -0.03657678 145.46758081 -0.03063418 150.0730648 -0.01325226 C151.76702079 -0.00927265 153.46099755 -0.01044649 155.15494537 -0.01704025 C157.45994669 -0.02518796 159.7641424 -0.01501759 162.0690918 0 C164.00730852 0.00169662 164.00730852 0.00169662 165.98468113 0.00342751 C166.9701842 0.12801023 167.95568727 0.25259296 168.97105408 0.38095093 C171.13527757 3.62728617 171.34675263 4.62396536 170.97105408 8.38095093 C170.31105408 9.37095093 169.65105408 10.36095093 168.97105408 11.38095093 C166.21056175 11.75009441 166.21056175 11.75009441 162.61836243 11.74171448 C161.62962126 11.74555939 161.62962126 11.74555939 160.62090552 11.74948198 C158.40192725 11.75444168 156.18362247 11.73789194 153.96470642 11.7215271 C152.37822485 11.72068129 150.79174211 11.72115506 149.20526123 11.72285461 C144.88929946 11.72371782 140.57358618 11.70603968 136.25768232 11.68513274 C131.75066343 11.66641994 127.24363927 11.66461977 122.73658752 11.66105652 C114.19780928 11.65172014 105.65914582 11.62708489 97.12041819 11.59700805 C87.40110495 11.5635135 77.68178632 11.54699049 67.96242976 11.53192174 C47.96524039 11.50053667 27.96815445 11.44774531 7.97105408 11.38095093 C8.30105408 14.68095093 8.63105408 17.98095093 8.97105408 21.38095093 C9.63105408 21.38095093 10.29105408 21.38095093 10.97105408 21.38095093 C10.97105408 22.04095093 10.97105408 22.70095093 10.97105408 23.38095093 C12.08011219 23.37680286 12.08011219 23.37680286 13.21157551 23.37257099 C31.18816756 23.30636646 49.16473534 23.25669733 67.14142323 23.22551441 C75.83475938 23.21003442 84.52801424 23.18892334 93.22129822 23.15463257 C100.79688037 23.12476478 108.37240366 23.10538416 115.94804305 23.09868544 C119.96065314 23.09476871 123.97309481 23.08554055 127.98565102 23.06376076 C131.7604713 23.04343688 135.53505338 23.03710874 139.30992317 23.04162788 C140.69708805 23.04080084 142.08426068 23.03481064 143.47137833 23.0233345 C145.36202519 23.00845643 147.25279913 23.01377394 149.14349365 23.02018738 C150.20263379 23.017422 151.26177393 23.01465662 152.35300922 23.01180744 C154.97105408 23.38095093 154.97105408 23.38095093 156.84699535 24.7277174 C157.97105408 26.38095093 157.97105408 26.38095093 157.78355408 29.19345093 C155.89194174 36.61439163 152.73161551 42.73492727 148.97105408 49.38095093 C148.39871033 48.73641968 147.82636658 48.09188843 147.23667908 47.42782593 C144.81841584 45.24305017 143.88565268 44.84192417 140.72105408 44.63095093 C139.48355408 44.54845093 138.24605408 44.46595093 136.97105408 44.38095093 C137.59350007 43.10886471 138.21912175 41.83833211 138.84605408 40.56845093 C139.19410095 39.86075562 139.54214783 39.1530603 139.90074158 38.42391968 C140.97105408 36.38095093 140.97105408 36.38095093 142.97105408 33.38095093 C142.26168261 33.38371631 141.55231113 33.38648169 140.82144356 33.38933086 C123.57957839 33.45551616 106.33774538 33.5051951 89.09578133 33.53638744 C80.75777252 33.55187186 72.41984839 33.5729913 64.08189392 33.60726929 C56.81652168 33.63712363 49.55121075 33.65651447 42.28577888 33.66321641 C38.43695927 33.66713544 34.58831506 33.67637801 30.73955154 33.6981411 C27.11985831 33.71844382 23.5004134 33.72479747 19.88066864 33.72027397 C17.91293173 33.72149795 15.94522211 33.73767251 13.97755432 33.75421143 C12.81365173 33.75008743 11.64974915 33.74596344 10.45057678 33.74171448 C8.92685298 33.74586255 8.92685298 33.74586255 7.37234688 33.75009441 C6.57992025 33.62827706 5.78749363 33.50645971 4.97105408 33.38095093 C2.97105408 30.38095093 2.97105408 30.38095093 2.97105408 27.38095093 C2.31105408 27.38095093 1.65105408 27.38095093 0.97105408 27.38095093 C-3.02894592 21.96918622 -3.02894592 21.96918622 -3.02894592 19.38095093 C-3.68894592 19.38095093 -4.34894592 19.38095093 -5.02894592 19.38095093 C-8.800169 15.03833042 -9.62703067 11.30555413 -10.24378967 5.65048218 C-10.02894592 3.38095093 -10.02894592 3.38095093 -8.95482731 1.76291466 C-6.02848986 -0.33695102 -3.57093429 0.0031249 0 0 Z " fill="#A6CEEE" transform="translate(103.02894592285156,78.61904907226563)"/>
<path d="M0 0 C0.99 0.33 1.98 0.66 3 1 C2.67 51.82 2.34 102.64 2 155 C3.32 155 4.64 155 6 155 C6 154.34 6 153.68 6 153 C9.3203797 151.26434698 12.34566735 149.81825274 16 149 C15.99815641 148.31824078 15.99631283 147.63648155 15.99441338 146.93406296 C15.95025824 130.3507537 15.91715508 113.76746305 15.89637566 97.18410873 C15.88605998 89.16454712 15.87199408 81.14502472 15.84912109 73.12548828 C15.82919613 66.1362376 15.81628568 59.14701531 15.81182301 52.15773702 C15.80921411 48.45644824 15.80307603 44.75524072 15.78853989 41.05397797 C15.77244998 36.92364384 15.77201974 32.79345129 15.77294922 28.66308594 C15.76575867 27.43381882 15.75856812 26.2045517 15.75115967 24.93803406 C15.753909 23.81345291 15.75665833 22.68887177 15.75949097 21.5302124 C15.75764738 20.55311184 15.75580379 19.57601128 15.75390434 18.56930161 C16.00827114 15.91364714 16.64542556 14.27515583 18 12 C18.66 12.33 19.32 12.66 20 13 C19.67 13.99 19.34 14.98 19 16 C18.89776898 17.82653021 18.85367154 19.65653535 18.84178162 21.48588562 C18.82709839 23.19593781 18.82709839 23.19593781 18.81211853 24.9405365 C18.80636307 26.19210037 18.8006076 27.44366425 18.79467773 28.7331543 C18.77982834 30.70890945 18.77982834 30.70890945 18.76467896 32.72457886 C18.73763272 36.3379029 18.71662164 39.95124 18.69667697 43.56460929 C18.67481569 47.34028235 18.64742769 51.11591518 18.62062073 54.89155579 C18.57069577 62.04191766 18.52575621 69.19230188 18.48259836 76.34270746 C18.43322431 84.48291469 18.3783068 92.62308156 18.32291877 100.76324975 C18.20910174 117.50879596 18.10226209 134.25437916 18 151 C16.34738159 151.69959839 16.34738159 151.69959839 14.66137695 152.41333008 C10.89713824 154.04457549 7.45363854 155.94873758 3.91796875 158.01171875 C2 159 2 159 0 159 C0 106.53 0 54.06 0 0 Z " fill="#546376" transform="translate(205,134)"/>
<path d="M0 0 C3.96 0 7.92 0 12 0 C12 52.47 12 104.94 12 159 C11.67 159 11.34 159 11 159 C10.67 107.19 10.34 55.38 10 2 C7.69 2 5.38 2 3 2 C2.99576806 2.76509919 2.99153612 3.53019838 2.98717594 4.3184824 C2.88306359 23.08939817 2.77431999 41.86028216 2.66066074 60.63114262 C2.60579933 69.70924339 2.55240462 78.787348 2.50268555 87.86547852 C2.45925649 95.79439966 2.41284886 103.72329734 2.36312145 111.65218157 C2.33698218 115.83551148 2.31215896 120.01883818 2.29092598 124.20219612 C2.1834722 145.15101959 1.80271805 166.06550397 1 187 C0.67 187 0.34 187 0 187 C0 125.29 0 63.58 0 0 Z " fill="#EFE1D8" transform="translate(193,134)"/>
<path d="M0 0 C6.84942119 1.97872168 6.84942119 1.97872168 9 5 C9.39148998 8.10383415 9.39148998 8.10383415 9.41459656 12.00875854 C9.42280436 12.72649921 9.43101216 13.44423987 9.43946868 14.18373024 C9.46319209 16.59509946 9.46536984 19.00600245 9.4675293 21.41748047 C9.47977654 23.14378722 9.49322828 24.87008579 9.50779724 26.59637451 C9.54289908 31.29060641 9.55811434 35.98469764 9.56763434 40.67904425 C9.57420422 43.61070472 9.58454698 46.54232769 9.59613991 49.47397232 C9.63589294 59.69831941 9.65790251 69.92255367 9.66577148 80.14697266 C9.67364528 89.68293016 9.72289284 99.21808408 9.79083699 108.75378501 C9.84710791 116.93647136 9.87268304 125.11889005 9.87471896 133.30176842 C9.87656206 138.19104939 9.8912818 143.07948323 9.93753624 147.96856308 C9.98011704 152.56707548 9.98460551 157.16406057 9.95974159 161.76268768 C9.95715077 163.45058676 9.96825125 165.1385705 9.99401855 166.82627487 C10.17787148 179.63765591 10.17787148 179.63765591 7.15500832 183.13394547 C5.11691952 184.42993309 3.30999993 185.31701885 1 186 C0.67 185.34 0.34 184.68 0 184 C3.625 181 3.625 181 7 181 C6.67 122.92 6.34 64.84 6 5 C4.02 4.01 2.04 3.02 0 2 C0 1.34 0 0.68 0 0 Z " fill="#F3E2D5" transform="translate(320,91)"/>
<path d="M0 0 C0.72126849 -0.00256327 1.44253698 -0.00512655 2.18566209 -0.0077675 C4.60880761 -0.0127192 7.03133363 0.00380983 9.454422 0.02018738 C11.18883245 0.02103335 12.92324398 0.02055909 14.65765381 0.01885986 C19.37229549 0.01799733 24.08670929 0.03566481 28.8012979 0.05658174 C33.72605094 0.07530557 38.6508089 0.07709558 43.57559204 0.08065796 C52.90410843 0.08999107 62.23251965 0.11462196 71.56098968 0.14470643 C82.1799476 0.17821108 92.79891048 0.19472654 103.41790807 0.20979273 C125.26452941 0.24117042 147.111056 0.29395549 168.95759583 0.36076355 C168.95759583 1.35076355 168.95759583 2.34076355 168.95759583 3.36076355 C110.87759583 3.03076355 52.79759583 2.70076355 -7.04240417 2.36076355 C-7.04240417 6.32076355 -7.04240417 10.28076355 -7.04240417 14.36076355 C-7.70240417 14.03076355 -8.36240417 13.70076355 -9.04240417 13.36076355 C-9.56193542 11.18107605 -9.56193542 11.18107605 -9.85490417 8.48576355 C-9.96447449 7.60146667 -10.0740448 6.7171698 -10.18693542 5.80607605 C-10.04240417 3.36076355 -10.04240417 3.36076355 -8.97352123 1.73047924 C-6.03591826 -0.35312355 -3.57086331 -0.00762462 0 0 Z " fill="#B5CBDE" transform="translate(103.04240417480469,78.63923645019531)"/>
<path d="M0 0 C1.485 0.99 1.485 0.99 3 2 C3.3719368 4.0883112 3.3719368 4.0883112 3.36749268 6.71974182 C3.37306183 7.71603607 3.37863098 8.71233032 3.3843689 9.73881531 C3.37515411 10.83635635 3.36593933 11.9338974 3.35644531 13.06469727 C3.35848969 14.21786438 3.36053406 15.37103149 3.36264038 16.55914307 C3.36566258 20.39505574 3.34711201 24.23054415 3.328125 28.06640625 C3.32506674 30.73567878 3.32309097 33.40493147 3.32244873 36.07420349 C3.31875 41.68746418 3.30377099 47.30060309 3.28125 52.91381836 C3.25259845 60.06858424 3.2420456 67.22325093 3.2375679 74.37806797 C3.23398105 79.90236918 3.22373174 85.42665252 3.21169281 90.95094109 C3.20603595 93.58562991 3.20126259 96.22032079 3.19742584 98.85501289 C3.17160182 112.60244277 3.06188796 126.28879667 2 140 C2.66 140 3.32 140 4 140 C4 140.66 4 141.32 4 142 C2.68 141.34 1.36 140.68 0 140 C0 93.8 0 47.6 0 0 Z " fill="#F6E5D3" transform="translate(40,132)"/>
<path d="M0 0 C0.33 0.66 0.66 1.32 1 2 C2.32 2 3.64 2 5 2 C5.99 3.485 5.99 3.485 7 5 C9.55386372 5.44840285 9.55386372 5.44840285 12.59341431 5.36076355 C13.78255936 5.36488754 14.97170441 5.36901154 16.19688416 5.3732605 C18.16377953 5.35708176 18.16377953 5.35708176 20.17041016 5.34057617 C21.55984987 5.3397303 22.94929093 5.34020426 24.33872986 5.34190369 C28.11753326 5.34276664 31.89605267 5.32509263 35.67478991 5.30418181 C39.62126264 5.28546483 43.56774144 5.28366852 47.51425171 5.28010559 C54.99055879 5.27077044 62.46673473 5.24613687 69.94298398 5.21605712 C78.45312807 5.18255874 86.96327831 5.16603861 95.47347188 5.15097082 C112.98239053 5.11958852 130.49118141 5.06679958 148 5 C148.33 6.32 148.66 7.64 149 9 C149.99 9 150.98 9 152 9 C152.41166078 19.29151943 152.41166078 19.29151943 150 24 C147.375 25.375 147.375 25.375 145 26 C145.30744141 25.12988281 145.30744141 25.12988281 145.62109375 24.2421875 C147.89328215 17.75646887 147.89328215 17.75646887 149 11 C146.32780455 8.32780455 145.02883891 8.74102003 141.29269409 8.7215271 C140.07830658 8.71036362 138.86391907 8.69920013 137.61273193 8.68769836 C136.259888 8.68533318 134.90704373 8.68315757 133.55419922 8.68115234 C132.1351972 8.67185816 130.71620067 8.66169025 129.29721069 8.65071106 C125.43795976 8.62333939 121.57874546 8.60824054 117.71942282 8.59528303 C113.68881098 8.57968372 109.65827434 8.55288338 105.62771606 8.5272522 C97.99212832 8.48040756 90.35652652 8.44369105 82.72086823 8.41057932 C74.02928427 8.37239801 65.33777572 8.32297746 56.64625525 8.27259517 C38.76422531 8.16919081 20.88214938 8.07995815 3 8 C3 7.34 3 6.68 3 6 C2.34 6 1.68 6 1 6 C0.67 4.02 0.34 2.04 0 0 Z " fill="#DAD7D8" transform="translate(111,94)"/>
<path d="M0 0 C0.66 0.33 1.32 0.66 2 1 C1.67 1.99 1.34 2.98 1 4 C0.89776898 5.82653021 0.85367154 7.65653535 0.84178162 9.48588562 C0.8319928 10.62592041 0.82220398 11.7659552 0.81211853 12.9405365 C0.80636307 14.19210037 0.8006076 15.44366425 0.79467773 16.7331543 C0.78477814 18.0503244 0.77487854 19.36749451 0.76467896 20.72457886 C0.73763272 24.3379029 0.71662164 27.95124 0.69667697 31.56460929 C0.67481569 35.34028235 0.64742769 39.11591518 0.62062073 42.89155579 C0.57069577 50.04191766 0.52575621 57.19230188 0.48259836 64.34270746 C0.43322431 72.48291469 0.3783068 80.62308156 0.32291877 88.76324975 C0.20910174 105.50879596 0.10226209 122.25437916 0 139 C-2.31 139.33 -4.62 139.66 -7 140 C-6.34 139.01 -5.68 138.02 -5 137 C-4.01 137 -3.02 137 -2 137 C-2.00276538 135.97736116 -2.00276538 135.97736116 -2.00558662 134.93406296 C-2.04974176 118.3507537 -2.08284492 101.76746305 -2.10362434 85.18410873 C-2.11394002 77.16454712 -2.12800592 69.14502472 -2.15087891 61.12548828 C-2.17080387 54.1362376 -2.18371432 47.14701531 -2.18817699 40.15773702 C-2.19078589 36.45644824 -2.19692397 32.75524072 -2.21146011 29.05397797 C-2.22755002 24.92364384 -2.22798026 20.79345129 -2.22705078 16.66308594 C-2.23424133 15.43381882 -2.24143188 14.2045517 -2.24884033 12.93803406 C-2.246091 11.81345291 -2.24334167 10.68887177 -2.24050903 9.5302124 C-2.24235262 8.55311184 -2.24419621 7.57601128 -2.24609566 6.56930161 C-1.99172886 3.91364714 -1.35457444 2.27515583 0 0 Z " fill="#4E5D6F" transform="translate(223,146)"/>
<path d="M0 0 C0.99 0.495 0.99 0.495 2 1 C2 1.66 2 2.32 2 3 C2.66 3 3.32 3 4 3 C4.66 4.98 5.32 6.96 6 9 C51.54 9 97.08 9 144 9 C142 13 142 13 140 15 C140.33 13.35 140.66 11.7 141 10 C140.30370137 10.00737434 139.60740274 10.01474869 138.89000416 10.0223465 C121.94762982 10.19902014 105.0055472 10.33140364 88.06246662 10.41449738 C79.86886325 10.45574922 71.67587473 10.51198809 63.48266602 10.60351562 C56.34141466 10.68325356 49.20060853 10.73486531 42.05892438 10.75270796 C38.27715418 10.76313853 34.49665767 10.78764627 30.71529579 10.84584045 C27.15510171 10.9001865 23.5967042 10.916886 20.03613472 10.90486145 C18.10813591 10.90810858 16.18033252 10.95114187 14.25283813 10.99536133 C5.98942417 10.91642153 5.98942417 10.91642153 3.08711815 8.22825623 C1.32861429 5.52065945 0 3.27071906 0 0 Z " fill="#ECE0D6" transform="translate(102,103)"/>
<path d="M0 0 C0.66 0.99 1.32 1.98 2 3 C4.46894245 3.46393721 4.46894245 3.46393721 7.40359497 3.39872742 C8.55066925 3.41126556 9.69774353 3.42380371 10.87957764 3.4367218 C12.14408752 3.43528671 13.40859741 3.43385162 14.71142578 3.43237305 C16.05161446 3.44138563 17.39179486 3.4517116 18.73196411 3.46325684 C22.3763791 3.49091263 26.02063808 3.50012287 29.66514444 3.50611091 C33.47155894 3.5154724 37.27785585 3.54167386 41.084198 3.56611633 C48.29479911 3.60984654 55.50537748 3.63835333 62.71607101 3.66143972 C70.92400925 3.68845656 79.13182958 3.73237013 87.33968377 3.77772844 C104.22639523 3.87066804 121.11313212 3.94230599 138 4 C138 4.33 138 4.66 138 5 C92.46 5 46.92 5 0 5 C-0.66 3.68 -1.32 2.36 -2 1 C-1.34 0.67 -0.68 0.34 0 0 Z " fill="#BECFDF" transform="translate(108,107)"/>
<path d="M0 0 C40.26 0 80.52 0 122 0 C122 0.33 122 0.66 122 1 C121.3843175 1.00331015 120.76863501 1.00662029 120.13429546 1.01003075 C105.16186689 1.09120769 90.18954856 1.18328257 75.21726513 1.28752708 C67.97681484 1.33767517 60.73637599 1.38411777 53.49584961 1.421875 C47.18591123 1.45478884 40.87606112 1.49461659 34.5662201 1.54279006 C31.22438417 1.56806122 27.88260684 1.58984058 24.54070091 1.60334396 C20.81240458 1.62014525 17.08439372 1.64916576 13.35620117 1.68115234 C12.24489838 1.68331253 11.13359558 1.68547272 9.98861694 1.68769836 C8.46788322 1.70444359 8.46788322 1.70444359 6.91642761 1.7215271 C6.03427173 1.72705786 5.15211584 1.73258862 4.24322796 1.73828697 C1.71631294 1.86084331 1.71631294 1.86084331 -1 4 C-0.67 2.68 -0.34 1.36 0 0 Z " fill="#EAE4E2" transform="translate(118,122)"/>
<path d="M0 0 C-0.70495605 0.39268066 -1.40991211 0.78536133 -2.13623047 1.18994141 C-5.3834182 2.99996267 -8.62921435 4.81246577 -11.875 6.625 C-12.98359375 7.24246094 -14.0921875 7.85992187 -15.234375 8.49609375 C-21.89535672 12.21840707 -28.47814362 16.03978751 -35 20 C-36.78327382 21.07127915 -38.56713966 22.14157335 -40.3515625 23.2109375 C-41.22167969 23.73300781 -42.09179688 24.25507813 -42.98828125 24.79296875 C-46.9921875 27.1953125 -50.99609375 29.59765625 -55 32 C-55.33 31.01 -55.66 30.02 -56 29 C-53.71125827 27.66141476 -51.41930344 26.32898986 -49.125 25 C-48.47402344 24.6184375 -47.82304687 24.236875 -47.15234375 23.84375 C-42.2265625 21 -42.2265625 21 -40 21 C-40 20.34 -40 19.68 -40 19 C-38.84371094 18.49339844 -38.84371094 18.49339844 -37.6640625 17.9765625 C-36.66117188 17.53054688 -35.65828125 17.08453125 -34.625 16.625 C-33.62726563 16.18414062 -32.62953125 15.74328125 -31.6015625 15.2890625 C-28.91977521 14.13287556 -28.91977521 14.13287556 -27 12 C-25.37565907 11.10563733 -23.7263621 10.2559931 -22.0625 9.4375 C-21.18722656 9.00308594 -20.31195313 8.56867188 -19.41015625 8.12109375 C-17 7 -17 7 -14 6 C-13.67 5.01 -13.34 4.02 -13 3 C-10.1875 1.9375 -10.1875 1.9375 -7 1 C-6.278125 0.608125 -5.55625 0.21625 -4.8125 -0.1875 C-3 -1 -3 -1 0 0 Z " fill="#F4E3D4" transform="translate(248,320)"/>
<path d="M0 0 C-0.77601563 0.42821045 -1.55203125 0.8564209 -2.3515625 1.29760742 C-5.2674212 2.90798434 -8.18215851 4.52035642 -11.09619141 6.1340332 C-12.3506397 6.82817842 -13.60551268 7.52155678 -14.86083984 8.21411133 C-16.67922193 9.21748152 -18.49623335 10.22327476 -20.3125 11.23046875 C-20.89950684 11.555383 -21.48651367 11.88029724 -22.09130859 12.21505737 C-25.388232 14.05394603 -28.59038211 15.98603095 -31.75 18.05078125 C-32.8225 18.69402344 -33.895 19.33726562 -35 20 C-35.66 19.67 -36.32 19.34 -37 19 C-32.20933311 15.05213562 -27.60662918 11.57515095 -21.96484375 8.9609375 C-19.87141491 7.93711345 -17.95932794 6.7603864 -16 5.5 C-13.29357193 3.78450819 -10.57364619 2.14140258 -7.75 0.625 C-7.12609375 0.28726562 -6.5021875 -0.05046875 -5.859375 -0.3984375 C-3.54762697 -1.14635598 -2.29647165 -0.65536944 0 0 Z " fill="#F6E3D3" transform="translate(303,288)"/>
<path d="M0 0 C0.66 0.33 1.32 0.66 2 1 C-0.83084727 4.14538586 -3.10365552 5.47947532 -7 7 C-7.78375 7.639375 -8.5675 8.27875 -9.375 8.9375 C-12.4017384 11.3156516 -15.47186006 12.48794003 -19 14 C-19.825 14.70125 -20.65 15.4025 -21.5 16.125 C-24.63625529 18.47719147 -27.143819 18.69755443 -31 19 C-25.91351665 14.75413174 -20.34275246 11.53137749 -14.62426758 8.23461914 C-12.8021558 7.18152152 -10.98800819 6.11551806 -9.17382812 5.04882812 C-8.01869098 4.3794108 -6.86310761 3.71076274 -5.70703125 3.04296875 C-4.13659058 2.13067505 -4.13659058 2.13067505 -2.53442383 1.19995117 C-1.69806396 0.80396729 -0.8617041 0.4079834 0 0 Z " fill="#F4E3D4" transform="translate(140,37)"/>
<path d="M0 0 C0.66 0.33 1.32 0.66 2 1 C0.2741183 3.01352865 -1.15765708 4.07690589 -3.5625 5.25 C-6.62666286 6.80993746 -9.1618665 8.49209491 -11.9375 10.5 C-14.86620037 12.59949003 -17.58719939 14.41555823 -20.9375 15.75 C-23.97909615 16.7504403 -23.97909615 16.7504403 -25.625 18.6875 C-27 20 -27 20 -29.6875 20.1875 C-30.8321875 20.0946875 -30.8321875 20.0946875 -32 20 C-28.6087311 17.17612685 -25.1898146 14.81813289 -21.3671875 12.6171875 C-20.31402344 12.00746094 -19.26085937 11.39773437 -18.17578125 10.76953125 C-17.08652344 10.14433594 -15.99726562 9.51914063 -14.875 8.875 C-12.70529456 7.6231488 -10.53600443 6.37057741 -8.3671875 5.1171875 C-7.40925293 4.56659668 -6.45131836 4.01600586 -5.46435547 3.44873047 C-3.60755657 2.3571667 -1.7921393 1.19475953 0 0 Z " fill="#F2E4D4" transform="translate(100,60)"/>
<path d="M0 0 C0.33 0 0.66 0 1 0 C1.19239902 4.78678103 1.37109864 9.57380327 1.53710938 14.36157227 C1.59551552 15.99029249 1.65766607 17.61888292 1.72363281 19.24731445 C1.8177949 21.58781299 1.8984892 23.92844767 1.9765625 26.26953125 C2.00875885 26.99775589 2.0409552 27.72598053 2.0741272 28.47627258 C2.18607509 32.25273952 2.15661556 33.76507666 0 37 C0 36.34 0 35.68 0 35 C-2.97 35.495 -2.97 35.495 -6 36 C-5.19175781 35.32710938 -4.38351563 34.65421875 -3.55078125 33.9609375 C0.84923379 28.68091945 -0.21246076 21.14656645 -0.1875 14.625 C-0.16433631 13.20699312 -0.13896707 11.78902046 -0.11132812 10.37109375 C-0.04871974 6.91408955 -0.01619247 3.45756907 0 0 Z " fill="#F4DECC" transform="translate(194,291)"/>
<path d="M0 0 C11.22 0 22.44 0 34 0 C34 0.33 34 0.66 34 1 C23.44 1 12.88 1 2 1 C2 4.96 2 8.92 2 13 C1.34 12.67 0.68 12.34 0 12 C-0.44921875 9.78515625 -0.44921875 9.78515625 -0.6875 7.0625 C-0.81705078 5.71865234 -0.81705078 5.71865234 -0.94921875 4.34765625 C-1 2 -1 2 0 0 Z " fill="#ACCAE7" transform="translate(94,80)"/>
<path d="M0 0 C0 0.33 0 0.66 0 1 C-0.886875 1.268125 -1.77375 1.53625 -2.6875 1.8125 C-5.83481165 2.94078154 -8.19820843 4.19884828 -11 6 C-12.35264026 6.85658181 -13.70692621 7.71056823 -15.0625 8.5625 C-15.71347656 8.97628906 -16.36445313 9.39007813 -17.03515625 9.81640625 C-20.93117523 12.16331232 -20.93117523 12.16331232 -23 13 C-23.99 12.67 -24.98 12.34 -26 12 C-22.80497235 9.97812556 -19.59205285 7.98660843 -16.375 6 C-15.47136719 5.42765625 -14.56773437 4.8553125 -13.63671875 4.265625 C-5.30097987 -0.84533898 -5.30097987 -0.84533898 0 0 Z " fill="#F5E3D3" transform="translate(187,13)"/>
<path d="M0 0 C0 0.66 0 1.32 0 2 C-0.99 2.66 -1.98 3.32 -3 4 C-3.804375 4.5775 -4.60875 5.155 -5.4375 5.75 C-6.7059375 6.36875 -6.7059375 6.36875 -8 7 C-10.16015625 6.078125 -10.16015625 6.078125 -12 5 C-10.75747321 4.15556432 -9.5056114 3.3248542 -8.25 2.5 C-7.55390625 2.0359375 -6.8578125 1.571875 -6.140625 1.09375 C-4 0 -4 0 0 0 Z " fill="#E1D1C3" transform="translate(242,134)"/>
<path d="M0 0 C2.60797351 1.26347163 5.21123407 2.53535224 7.8125 3.8125 C8.55048828 4.16892578 9.28847656 4.52535156 10.04882812 4.89257812 C10.76103516 5.24384766 11.47324219 5.59511719 12.20703125 5.95703125 C12.8616333 6.27647705 13.51623535 6.59592285 14.19067383 6.92504883 C16.11617064 8.06901894 17.48835511 9.35744135 19 11 C14.12308999 10.64315293 11.49637639 9.15896404 7.74609375 6.27734375 C5.3256481 4.50668216 2.7140143 3.25771395 0 2 C0 1.34 0 0.68 0 0 Z " fill="#F4E4D6" transform="translate(284,70)"/>
<path d="M0 0 C0 0.99 0 1.98 0 3 C-0.93972656 3.50660156 -0.93972656 3.50660156 -1.8984375 4.0234375 C-2.71570313 4.46945313 -3.53296875 4.91546875 -4.375 5.375 C-5.59316406 6.03628906 -5.59316406 6.03628906 -6.8359375 6.7109375 C-9.10814302 7.9443893 -9.10814302 7.9443893 -11 10 C-12.98821313 10.39764263 -14.98944339 10.73775349 -17 11 C-14.20957375 7.71165383 -10.52671824 5.87264311 -6.8125 3.8125 C-6.15830078 3.44447266 -5.50410156 3.07644531 -4.83007812 2.69726562 C-3.22253039 1.7937534 -1.61159349 0.8962759 0 0 Z " fill="#F3E4D7" transform="translate(159,26)"/>
<path d="M0 0 C0.625 1.875 0.625 1.875 1 4 C-1.72106694 6.72106694 -3.84776311 6.60655572 -7.625 7.125 C-9.40777344 7.37636719 -9.40777344 7.37636719 -11.2265625 7.6328125 C-12.14179688 7.75398437 -13.05703125 7.87515625 -14 8 C-12.3655205 6.03553095 -11.53570606 5.07682209 -8.95703125 4.70703125 C-6.97135417 4.8046875 -4.98567708 4.90234375 -3 5 C-3 4.01 -3 3.02 -3 2 C-2.01 2 -1.02 2 0 2 C0 1.34 0 0.68 0 0 Z " fill="#314967" transform="translate(249,127)"/>
<path d="M0 0 C0.66 0.33 1.32 0.66 2 1 C-2.625 5 -2.625 5 -6 5 C-6 5.66 -6 6.32 -6 7 C-8.30368736 8.06652192 -10.64018187 9.06421005 -13 10 C-13.66 9.67 -14.32 9.34 -15 9 C-12.54732365 7.46931512 -10.08866106 5.95031377 -7.625 4.4375 C-6.92632812 3.99986328 -6.22765625 3.56222656 -5.5078125 3.11132812 C-3.70814097 2.01249022 -1.85677657 0.99932133 0 0 Z " fill="#F3E3D7" transform="translate(59,84)"/>
<path d="M0 0 C0.99 0.33 1.98 0.66 3 1 C0.89812468 2.31629567 -1.20631676 3.62812997 -3.3125 4.9375 C-4.20485352 5.49727539 -4.20485352 5.49727539 -5.11523438 6.06835938 C-7.72747744 7.68824194 -10.07221173 9.02407058 -13 10 C-13 9.34 -13 8.68 -13 8 C-9.20148226 5.19633214 -5.23266291 3.06711444 -1 1 C-0.67 0.67 -0.34 0.34 0 0 Z " fill="#F6E2D1" transform="translate(316,277)"/>
<path d="M0 0 C2.31 0.33 4.62 0.66 7 1 C6.25 2.9375 6.25 2.9375 5 5 C2.875 5.75 2.875 5.75 1 6 C1 5.01 1 4.02 1 3 C0.01 3.33 -0.98 3.66 -2 4 C-1.34 2.68 -0.68 1.36 0 0 Z " fill="#39557A" transform="translate(120,123)"/>
<path d="M0 0 C5.75 0.75 5.75 0.75 8 3 C10.06874034 3.6425235 10.06874034 3.6425235 12 4 C12.33 5.32 12.66 6.64 13 8 C11.20601733 7.04600922 9.41488345 6.08665974 7.625 5.125 C6.62726563 4.59132813 5.62953125 4.05765625 4.6015625 3.5078125 C2 2 2 2 0 0 Z " fill="#F4E2D4" transform="translate(80,295)"/>
<path d="M0 0 C0.33 0.66 0.66 1.32 1 2 C-0.20060993 5.47544979 -1.32883638 8.25940566 -3.8125 11 C-6.82701233 12.37806278 -8.8490305 11.78774237 -12 11 C-12 10.67 -12 10.34 -12 10 C-10.948125 9.835 -9.89625 9.67 -8.8125 9.5 C-5.23957281 8.52688568 -3.98166424 6.99639931 -2.0625 3.875 C-1.35401849 2.59472152 -0.65923515 1.30631851 0 0 Z " fill="#CCCAC4" transform="translate(254,123)"/>
<path d="M0 0 C4.13126473 1.92151848 7.53258866 4.04250209 11 7 C10.67 7.66 10.34 8.32 10 9 C8.02 8.01 6.04 7.02 4 6 C4 5.01 4 4.02 4 3 C2.68 2.67 1.36 2.34 0 2 C0 1.34 0 0.68 0 0 Z " fill="#DCD0C7" transform="translate(131,135)"/>
<path d="M0 0 C0.66 0.33 1.32 0.66 2 1 C1.40164922 5.18845544 0.5586679 9.05748707 -1 13 C-1.99 13.495 -1.99 13.495 -3 14 C-2.28547412 9.23649415 -1.20465156 4.65798604 0 0 Z " fill="#B1CBE0" transform="translate(259,104)"/>
<path d="M0 0 C4.97209562 1.76429199 9.43438061 4.3939166 14 7 C10.37673261 8.2077558 9.35853631 7.54311128 6 6 C6 5.34 6 4.68 6 4 C5.01 4 4.02 4 3 4 C3 3.34 3 2.68 3 2 C2.01 1.67 1.02 1.34 0 1 C0 0.67 0 0.34 0 0 Z " fill="#F3E6D8" transform="translate(205,24)"/>
<path d="M0 0 C-4.95 2.97 -4.95 2.97 -10 6 C-10 5.01 -10 4.02 -10 3 C-3.375 -1.125 -3.375 -1.125 0 0 Z " fill="#F5E5D2" transform="translate(259,313)"/>
<path d="M0 0 C2.25 -0.25 2.25 -0.25 5 0 C7.125 1.9375 7.125 1.9375 9 4 C9.99 4.33 10.98 4.66 12 5 C12 5.66 12 6.32 12 7 C7.69235185 5.43358249 3.93828536 3.31663844 0 1 C0 0.67 0 0.34 0 0 Z " fill="#F2E5D5" transform="translate(68,288)"/>
<path d="M0 0 C0.66 0 1.32 0 2 0 C2 4.29 2 8.58 2 13 C1.34 12.67 0.68 12.34 0 12 C-0.44921875 9.78515625 -0.44921875 9.78515625 -0.6875 7.0625 C-0.81705078 5.71865234 -0.81705078 5.71865234 -0.94921875 4.34765625 C-1 2 -1 2 0 0 Z " fill="#C4D3DB" transform="translate(94,80)"/>
<path d="M0 0 C2.1875 -0.3125 2.1875 -0.3125 5 0 C7.8125 2.5 7.8125 2.5 10 5 C5.75354935 5 3.61475228 3.18249194 0 1 C0 0.67 0 0.34 0 0 Z " fill="#F6E3D4" transform="translate(151,336)"/>
<path d="M0 0 C4.5076467 0.53031138 7.41954788 2.25221116 11 5 C11 5.66 11 6.32 11 7 C6.89188572 5.55007731 3.53144334 3.54592427 0 1 C0 0.67 0 0.34 0 0 Z " fill="#F6E5D2" transform="translate(165,344)"/>
<path d="M0 0 C0.66 0 1.32 0 2 0 C3.125 3.75 3.125 3.75 2 6 C2.99 6.33 3.98 6.66 5 7 C3.35 6.67 1.7 6.34 0 6 C-0.38218767 4.34385343 -0.71395102 2.67542976 -1 1 C-0.67 0.67 -0.34 0.34 0 0 Z " fill="#354B63" transform="translate(119,126)"/>
<path d="M0 0 C1.32 0.66 2.64 1.32 4 2 C3.67 2.66 3.34 3.32 3 4 C2.34 4 1.68 4 1 4 C0.67 4.66 0.34 5.32 0 6 C0 5.34 0 4.68 0 4 C-0.99 3.67 -1.98 3.34 -3 3 C-2.01 2.01 -1.02 1.02 0 0 Z " fill="#DECABB" transform="translate(152,289)"/>
<path d="M0 0 C1.485 0.99 1.485 0.99 3 2 C3.1875 5.125 3.1875 5.125 3 8 C1.68 8.33 0.36 8.66 -1 9 C-0.7525 7.329375 -0.7525 7.329375 -0.5 5.625 C0.0455458 2.27967967 0.0455458 2.27967967 0 0 Z " fill="#DFD9D5" transform="translate(273,80)"/>
<path d="M0 0 C6.52307692 1.47692308 6.52307692 1.47692308 8.9375 4.125 C9.288125 4.74375 9.63875 5.3625 10 6 C6.40992874 4.66654496 3.20429093 3.1056769 0 1 C0 0.67 0 0.34 0 0 Z " fill="#F6E5D7" transform="translate(132,325)"/>
<path d="M0 0 C5.53846154 0.61538462 5.53846154 0.61538462 7.875 2.5625 C8.431875 3.2740625 8.431875 3.2740625 9 4 C8.01 4.495 8.01 4.495 7 5 C4.5249829 3.88568235 2.32116581 2.41849022 0 1 C0 0.67 0 0.34 0 0 Z " fill="#F4E4D6" transform="translate(123,320)"/>
<path d="M0 0 C4.75 0.75 4.75 0.75 7 3 C6.625 5.125 6.625 5.125 6 7 C6 6.01 6 5.02 6 4 C4.68 3.67 3.36 3.34 2 3 C2 2.34 2 1.68 2 1 C1.34 0.67 0.68 0.34 0 0 Z " fill="#3A5D83" transform="translate(244,123)"/>
<path d="M0 0 C0.66 0 1.32 0 2 0 C2.33 2.64 2.66 5.28 3 8 C2.01 7.67 1.02 7.34 0 7 C0 4.69 0 2.38 0 0 Z " fill="#ECDCCC" transform="translate(91,82)"/>
</svg>
